<?xml version="1.0" encoding="UTF-8"?>
<svg width="600" height="450" version="1.1" viewBox="0 0 600.00001 450.00001" xmlns="http://www.w3.org/2000/svg">
 <g transform="translate(0 -602.36)">
  <g transform="scale(.93565 1.0688)" fill="#f00">
   <path d="m413.78 665.74h38.336q121.42 0 121.42 11.187 20.739 11.312 20.739 95.777 0 99.045-27.149 99.045 0 9.5526-135.75 9.5526-143.79 0-143.79-12.821-13.7 0-19.105-66.994v-38.336q0-72.398 17.471-84.716 6.913-11.187 55.933-11.187 11.564-1.5083 71.896-1.5083zm-365.76 33.434h22.373q12.821 49.02 12.821 52.79h3.1423q0-7.5415 12.821-52.79h20.739l-24.007 86.35v52.665q0 3.1423-3.1423 3.1423h-15.963q-3.268 0-3.268-3.1423v-49.522q0-12.318-25.515-89.492zm249.12 1.634v15.963q0.50276 3.268 3.268 3.268h20.739l-1.634 3.1423v113.37q0.50276 3.268 3.268 3.268h17.471v-119.78h20.865q3.1423 0 3.1423-3.268v-15.963h-67.119zm140.65 0v139.01h19.105v-9.6782q7.5415 6.7873 14.329 11.187h6.4103q15.963 0 15.963-33.56v-43.112q0-30.292-17.597-30.292-7.1644 0-19.105 11.187v-44.746h-19.105zm71.77 60.709v52.665q3.1423 27.149 27.149 27.149h3.268q25.515 0 25.515-31.926v-4.7763h-19.105v9.5526q0 11.187-9.6782 11.187-9.5526-3.268-9.5526-12.695v-20.865h35.194q3.1423 0 3.1423-3.1423v-17.597q0-36.702-28.783-36.702-27.149 3.268-27.149 27.149zm-362.49-27.149h6.4103q20.99 0 23.881 33.56v39.844q0 30.669-27.149 35.194h-1.5083q-28.783 0-28.783-44.746v-20.739q0-43.112 27.149-43.112zm220.34 1.634v92.635q0 12.695 12.821 12.695h1.634q7.6672 0 19.105-11.187h1.634v9.6782h19.105v-103.82h-19.105v79.814q-5.6561 9.5526-14.329 9.5526-3.268-5.1534-3.268-9.5526v-79.814h-17.597zm-175.59 0h20.739v84.59q0.50276 3.268 3.1423 3.268h3.268q9.5526-4.1478 9.5526-12.821v-75.038h19.105v105.33h-19.105v-11.187q-10.055 9.6782-22.373 12.821-14.329 0-14.329-31.926v-67.119q0-1.634 1.5083-1.634l-1.5083-3.1423v-3.1423zm-51.156 25.515v52.665q1.0055 9.6782 4.7763 9.6782h6.4103q6.4103 0 6.4103-22.373v-27.149q0-22.373-6.4103-22.373h-1.634q-9.5526 0-9.5526 9.5526zm394.55-11.187q11.187 1.2569 11.187 11.187v14.329h-19.231v-9.5526q0-11.187 8.0442-15.963zm-73.53 1.634h8.0442q4.7763 1.5083 4.7763 9.5526v44.746q0 1.5083 1.5083 1.5083-2.2624 17.597-9.5526 17.597-9.5526-3.268-9.5526-6.4103v-62.217q0-2.2624 4.7763-4.7763z" style=""/>
  </g>
 </g>
</svg>
